<svg xmlns="http://www.w3.org/2000/svg" xml:space="preserve" id="Layer_1" x="0" y="0" style="enable-background:new 0 0 245.34 245.34" version="1.0" viewBox="0 0 245.34 245.34"><style>.st0{fill:#ffffff}</style><path d="M139.21 130.57c0 7.58 0 15.16-.02 22.73-.01 2.41-.17 4.84-.44 7.24-.82 7.25-5.01 11.05-12.29 11.27-6.92.2-11.11-2.94-12.66-9.67-.47-2.03-.72-4.15-.73-6.24-.05-8.43-.05-16.86-.05-25.28L95.15 120.3c-.39-.23-.76-.52-1.12-.84 0 10.82-.09 21.65.05 32.47.06 4.38.25 8.82 1.04 13.12 2.09 11.41 8.1 19.84 19.55 23.51 6.3 2.02 12.77 2.18 19.27.9 9.08-1.78 15.89-6.58 20.1-14.9 3.28-6.48 4.12-13.47 4.17-20.59.07-11.54.02-23.07.02-34.61-.39.36-.8.69-1.23.93l-17.79 10.28zM82.9 140.18c-2.09-11.41-8.1-19.84-19.55-23.51-6.3-2.02-12.77-2.18-19.27-.9-9.08 1.78-15.89 6.58-20.1 14.9-3.28 6.48-4.12 13.47-4.17 20.59-.07 11.86-.02 23.72-.02 35.59 0 .62.06 1.24.09 1.94H34.1v-.04h4.7v-2.37c0-11.48-.02-22.96.02-34.44.01-2.41.17-4.84.44-7.24.82-7.25 5.01-11.05 12.29-11.27 6.92-.2 11.11 2.94 12.66 9.67.47 2.03.72 4.15.73 6.24.07 12.37.04 24.74.04 37.12v2.32h7.95v-.01h11.04v-2.36c0-11.03.09-22.07-.05-33.1-.04-4.39-.24-8.83-1.02-13.13zM207.68 87.15v101.54c1.89 0 16.03.07 18.73.07V87.2c-1.56-.01-15.98-.05-18.73-.05zM198.83 115.71c-1.94.16-3.72.23-5.48.45-10.81 1.35-18.89 6.56-23.3 16.76-2.25 5.21-3.12 10.75-3.15 16.4-.06 12.76-.02 25.51-.03 38.27 0 .37.04.73.07 1.18h3.75c0 .01-.01.01-.01.02h15.08v-2.43c0-9.17-.03-18.35.01-27.52.02-4.2.06-8.41.29-12.6.37-6.56 3.59-10.52 9.28-11.64 1.16-.23 2.36-.27 3.51-.4v-16.95c-.01 0-.02.01-.04.02.02-.53.02-1.04.02-1.56z" class="st0"/><path d="m155.46 61.73-25.72-14.85c-2.36-1.36-6.23-1.36-8.59 0L95.44 61.73c-2.36 1.36-4.3 4.71-4.3 7.44v29.7c0 2.73 1.93 6.08 4.3 7.44l25.72 14.85c2.36 1.36 6.23 1.36 8.59 0l25.72-14.85c2.36-1.36 4.3-4.71 4.3-7.44v-29.7c-.01-2.73-1.94-6.08-4.31-7.44zm-35.06 1.81-14.59 25.44c-.48.75-.88.78-1.25.74-.85-.1-.99-.87-.99-.87l-6.86-19.82c-.51-1.82 1.21-2.26 1.21-2.26l21.11-4.71s.84-.14 1.29.21c.27.21.43.63.08 1.27zm3.01-7.51-11.84 2.64s-.87.26-.97-.24c-.1-.5.6-.85.6-.85l11.69-6.66s1.88-.87 2.03.92l.23 2.04c0 .01.09 1.69-1.74 2.15z" style="fill:#ffb533"/></svg>